<svg width="10" height="10" xmlns="http://www.w3.org/2000/svg" version="1.1">
 <g>
  <title>Layer 1</title>
  <g stroke="null" id="svg_1">
   <path stroke="null" id="svg_2" fill="#e74c3c" d="m5.02104,0.0842c-1.82537,0 -3.30511,1.47974 -3.30511,3.30511c0,0.58707 0.15765,1.13613 0.42603,1.61372c0.04458,0.07932 0.0913,0.15741 0.14204,0.2326l2.73704,4.7639l2.73704,-4.7639c0.04214,-0.06238 0.0785,-0.12849 0.11609,-0.19376l0.02603,-0.03883c0.26813,-0.47759 0.42595,-1.02665 0.42595,-1.61372c0,-1.82537 -1.47986,-3.30511 -3.30511,-3.30511zm0,1.65255c0.91262,0 1.65255,0.73989 1.65255,1.65255c0,0.91262 -0.73993,1.65255 -1.65255,1.65255c-0.91266,0 -1.65255,-0.73993 -1.65255,-1.65255c0,-0.91266 0.73989,-1.65255 1.65255,-1.65255z"/>
   <path stroke="null" id="svg_3" fill="#c0392b" d="m5.02104,1.32362c-1.14084,0 -2.06569,0.92485 -2.06569,2.06569c0,1.14068 0.92485,2.06569 2.06569,2.06569c1.14068,0 2.06569,-0.92502 2.06569,-2.06569c0,-1.14084 -0.92502,-2.06569 -2.06569,-2.06569zm0,0.82628c0.68457,0 1.23942,0.55489 1.23942,1.23942s-0.55485,1.23942 -1.23942,1.23942s-1.23942,-0.55489 -1.23942,-1.23942s0.55485,-1.23942 1.23942,-1.23942z"/>
  </g>
 </g>

</svg>